<?xml version="1.0" standalone="no"?>
<!DOCTYPE svg PUBLIC "-//W3C//DTD SVG 20010904//EN"
 "http://www.w3.org/TR/2001/REC-SVG-20010904/DTD/svg10.dtd">
<svg version="1.0" xmlns="http://www.w3.org/2000/svg"
 width="200.000000pt" height="200.000000pt" viewBox="0 0 200.000000 200.000000"
 preserveAspectRatio="xMidYMid meet">
<metadata>
Created by potrace 1.14, written by Peter Selinger 2001-2017
</metadata>
<g transform="translate(0.000000,200.000000) scale(0.100000,-0.100000)"
fill="#000000" stroke="none">
<path d="M1005 1993 c-149 -26 -231 -53 -331 -109 -94 -53 -119 -74 -406 -360
l-267 -266 150 -150 c83 -82 153 -148 155 -146 1 2 117 116 256 254 140 140
278 267 308 286 108 68 250 86 373 48 69 -22 167 -81 205 -125 128 -147 157
-344 77 -513 -34 -71 -56 -96 -302 -343 l-265 -267 151 -151 151 -151 271 273
c277 277 331 343 389 471 109 240 100 550 -22 776 -158 292 -440 468 -762 474
-61 2 -120 1 -131 -1z"/>
</g>
</svg>
